<!DOCTYPE svg PUBLIC "-//W3C//DTD SVG 20010904//EN" "http://www.w3.org/TR/2001/REC-SVG-20010904/DTD/svg10.dtd">
<svg version="1.0" xmlns="http://www.w3.org/2000/svg" width="20px" height="27px" viewBox="0 0 200 270" preserveAspectRatio="xMidYMid meet">
<g id="layer101" fill="#000000" stroke="none">
 <path d="M107 233 c5 -13 -2 -15 -48 -11 l-55 4 4 -95 c2 -53 5 -102 7 -109 6 -18 139 -16 155 3 7 8 17 12 23 8 7 -4 8 0 4 11 -4 10 -7 53 -7 97 0 64 -3 79 -15 79 -8 0 -15 6 -15 13 0 9 -12 14 -29 15 -23 0 -28 -3 -24 -15z m-14 -57 c-3 -15 -14 -27 -27 -30 -18 -4 -17 -4 4 -4 14 1 33 -2 43 -7 9 -4 26 -5 37 -2 17 4 20 0 20 -34 0 -28 -4 -39 -15 -39 -8 0 -15 -7 -15 -15 0 -11 -13 -15 -52 -15 l-53 0 0 85 0 85 31 0 c28 0 31 -3 27 -24z m57 -6 c0 -11 -6 -20 -14 -20 -18 0 -29 16 -21 30 11 18 35 11 35 -10z"/>
 <path d="M50 116 c0 -12 10 -16 36 -16 45 0 42 24 -4 28 -24 2 -32 -1 -32 -12z"/>
 <path d="M50 80 c0 -5 25 -10 55 -10 30 0 55 5 55 10 0 6 -25 10 -55 10 -30 0 -55 -4 -55 -10z"/>
 <path d="M78 43 c12 -2 30 -2 40 0 9 3 -1 5 -23 4 -22 0 -30 -2 -17 -4z"/>
 </g>

</svg>