<!DOCTYPE svg PUBLIC "-//W3C//DTD SVG 20010904//EN" "http://www.w3.org/TR/2001/REC-SVG-20010904/DTD/svg10.dtd">
<svg version="1.0" xmlns="http://www.w3.org/2000/svg" width="22px" height="15px" viewBox="0 0 220 150" preserveAspectRatio="xMidYMid meet">
<g id="layer101" fill="#000000" stroke="none">
 <path d="M0 75 l0 -75 108 0 107 0 -3 75 -4 75 -104 0 -104 0 0 -75z m179 11 c-3 -48 -4 -48 -54 -11 -21 15 -22 14 -84 -23 -20 -12 -21 -11 -21 33 l0 45 80 0 81 0 -2 -44z m-53 -41 c18 -13 16 -14 -25 -15 -42 0 -43 1 -25 15 24 18 26 18 50 0z"/>
 </g>
<g id="layer102" fill="#ffffff" stroke="none">
 <path d="M100 143 c58 -2 100 -7 94 -11 -7 -4 -14 -28 -16 -54 -4 -38 -2 -48 10 -48 8 0 12 -6 8 -15 -3 -8 0 -15 7 -15 9 0 11 21 9 75 l-4 75 -106 -2 -107 -2 105 -3z"/>
 <path d="M9 68 c-3 -27 -1 -38 8 -38 19 0 16 -18 -4 -22 -9 -2 25 -3 75 -3 51 0 92 3 92 7 0 15 -28 22 -88 21 -43 -1 -60 2 -56 9 4 6 3 8 -4 4 -7 -4 -12 6 -14 26 l-3 33 -6 -37z"/>
 <path d="M82 69 c2 -6 -3 -14 -11 -17 -9 -3 -11 0 -6 8 6 9 4 11 -4 5 -9 -5 -10 -10 -2 -18 7 -7 14 -7 24 2 8 6 21 9 30 5 18 -7 32 12 16 22 -8 4 -9 3 -5 -4 9 -15 1 -15 -25 -2 -14 8 -19 8 -17 -1z"/>
 </g>

</svg>