<!DOCTYPE svg PUBLIC "-//W3C//DTD SVG 20010904//EN" "http://www.w3.org/TR/2001/REC-SVG-20010904/DTD/svg10.dtd">
<svg version="1.0" xmlns="http://www.w3.org/2000/svg" width="22px" height="21px" viewBox="0 0 220 210" preserveAspectRatio="xMidYMid meet">
<g id="layer101" fill="#1b1b1b" stroke="none">
 <path d="M20 176 c0 -25 7 -40 24 -54 17 -13 22 -22 15 -29 -20 -20 -6 -67 23 -81 49 -23 103 27 76 71 -12 20 -11 25 13 47 14 14 31 25 38 24 6 -2 7 0 1 3 -5 2 -10 16 -10 29 0 24 -1 24 -90 24 l-90 0 0 -34z m150 -5 c0 -24 -36 -51 -67 -51 -26 0 -63 32 -63 55 0 12 14 15 65 15 58 0 65 -2 65 -19z m-46 -77 c25 -10 19 -31 -11 -37 -35 -7 -51 7 -33 28 14 17 21 18 44 9z"/>
 </g>

</svg>