<?xml version="1.0" standalone="no"?>
<!DOCTYPE svg PUBLIC "-//W3C//DTD SVG 20010904//EN"
 "http://www.w3.org/TR/2001/REC-SVG-20010904/DTD/svg10.dtd">
<svg version="1.0" xmlns="http://www.w3.org/2000/svg"
 width="172.000000pt" height="172.000000pt" viewBox="0 0 172.000000 172.000000"
 preserveAspectRatio="xMidYMid meet">
<metadata>
Created by potrace 1.16, written by Peter Selinger 2001-2019
</metadata>
<g transform="translate(0.000000,172.000000) scale(0.100000,-0.100000)"
fill="#000000" stroke="none">
<path d="M1195 1660 l7 -60 -481 0 c-474 0 -481 0 -481 -20 0 -14 -7 -20 -21
-20 -11 0 -29 -5 -40 -10 -18 -10 -19 -26 -19 -450 l0 -440 35 17 35 17 0 393
c0 343 2 393 15 393 10 0 15 11 15 35 l0 35 470 0 470 0 0 -145 0 -145 35 0
35 0 0 145 0 145 100 0 100 0 0 -35 c0 -19 5 -35 10 -35 7 0 10 -140 10 -400
l0 -400 -516 0 -517 0 29 -22 c16 -13 31 -26 32 -30 2 -5 237 -8 523 -8 l519
0 0 458 c0 485 0 482 -47 482 -16 0 -23 6 -23 20 0 19 -7 20 -108 20 l-108 0
4 60 4 60 -47 0 -47 0 7 -60z"/>
<path d="M455 1103 c-70 -37 -105 -95 -105 -173 0 -162 171 -248 310 -156 43
28 80 89 80 131 l0 25 -100 0 -100 0 0 95 0 95 -27 0 c-16 -1 -41 -8 -58 -17z"/>
<path d="M228 640 c-7 -11 -22 -20 -33 -20 -26 0 -45 -18 -45 -42 0 -10 -4
-18 -9 -18 -23 0 -42 -33 -36 -61 4 -18 2 -29 -4 -29 -14 0 -14 -67 -1 -75 6
-4 8 -11 4 -16 -11 -18 5 -57 26 -64 11 -3 20 -14 20 -24 0 -23 19 -41 45 -41
11 0 26 -9 33 -20 9 -15 23 -20 52 -20 l40 0 0 208 c0 190 -2 210 -18 225 -25
23 -59 21 -74 -3z m70 -2 c9 -9 12 -70 12 -215 l0 -203 -28 0 c-52 0 -70 46
-30 74 18 13 19 16 6 16 -9 0 -26 -12 -37 -26 -11 -15 -28 -24 -38 -22 -23 4
-29 39 -9 50 9 5 23 25 31 44 14 35 41 45 51 19 4 -8 10 -15 15 -15 6 0 5 9
-1 20 -20 37 -73 22 -81 -24 -6 -28 -35 -43 -56 -30 -25 16 -29 54 -6 55 16 0
15 2 -4 16 -25 17 -30 52 -11 71 17 17 26 15 53 -14 14 -15 25 -21 25 -14 0
20 -31 50 -52 50 -29 0 -35 30 -9 51 17 14 27 16 42 9 10 -6 19 -17 19 -24 0
-16 38 -52 46 -43 6 5 -9 25 -55 72 -13 14 -21 31 -17 40 9 23 42 18 60 -10 9
-14 24 -25 33 -25 14 0 13 3 -5 16 -35 24 -23 74 18 74 9 0 21 -5 28 -12z"/>
<path d="M358 649 c-16 -9 -18 -31 -18 -224 l0 -215 33 0 c21 0 41 8 52 20 10
11 29 20 42 20 16 0 27 9 35 28 7 15 23 37 35 49 17 16 22 29 17 47 -3 13 -1
27 5 30 14 9 14 53 1 61 -5 3 -10 21 -10 40 0 21 -7 39 -18 47 -9 7 -23 25
-29 41 -9 18 -20 27 -36 27 -13 0 -32 9 -42 20 -20 22 -41 25 -67 9z m62 -14
c17 -21 9 -47 -20 -63 l-25 -13 25 3 c15 2 29 12 35 26 12 27 41 29 54 3 9
-15 6 -22 -14 -35 -14 -9 -25 -23 -25 -32 0 -8 -7 -17 -15 -20 -8 -4 -15 -10
-15 -16 0 -16 31 7 44 33 8 17 20 24 41 24 25 0 31 -4 33 -27 3 -22 -1 -28
-17 -28 -24 0 -51 -26 -50 -48 0 -13 3 -12 11 5 13 28 34 36 59 23 26 -14 25
-56 -2 -70 -19 -11 -19 -13 -4 -24 20 -14 11 -43 -16 -51 -25 -8 -37 0 -54 41
-15 36 -49 46 -73 22 -20 -20 -13 -32 8 -13 23 21 50 13 50 -14 0 -11 12 -29
27 -41 22 -17 25 -25 17 -38 -14 -22 -54 -28 -54 -8 0 18 -39 48 -53 39 -5 -3
2 -11 15 -17 46 -23 30 -76 -23 -76 l-29 0 0 203 c0 209 3 227 41 227 9 0 22
-7 29 -15z"/>
</g>
</svg>
