<?xml version="1.0" standalone="no"?>
<!DOCTYPE svg PUBLIC "-//W3C//DTD SVG 20010904//EN"
 "http://www.w3.org/TR/2001/REC-SVG-20010904/DTD/svg10.dtd">
<svg version="1.0" xmlns="http://www.w3.org/2000/svg"
 width="172.000000pt" height="172.000000pt" viewBox="0 0 172.000000 172.000000"
 preserveAspectRatio="xMidYMid meet">
<metadata>
Created by potrace 1.16, written by Peter Selinger 2001-2019
</metadata>
<g transform="translate(0.000000,172.000000) scale(0.100000,-0.100000)"
fill="#000000" stroke="none">
<path d="M184 1597 c-12 -7 -14 -61 -14 -327 l0 -320 -74 0 -74 0 -7 -202 c-3
-112 -5 -266 -3 -343 l3 -140 224 -3 c156 -2 228 1 237 9 11 9 14 53 14 205
l0 194 355 0 c312 0 356 -2 362 -15 3 -9 -1 -21 -9 -28 -12 -10 -14 -35 -10
-129 l4 -118 43 0 43 0 4 118 c4 94 2 119 -10 129 -8 7 -12 19 -9 28 5 13 30
15 157 15 l150 0 0 459 c0 357 -3 462 -12 468 -17 10 -1355 10 -1374 0z m1326
-467 l0 -400 -70 0 -71 0 35 36 c76 78 88 204 28 287 -30 43 -31 48 -34 163
l-3 119 -40 0 -40 0 -3 -88 -3 -89 -42 7 c-23 4 -45 13 -50 20 -5 9 -32 13
-87 13 l-80 0 1 -26 c1 -17 3 -21 6 -9 3 11 14 17 34 17 42 0 38 -30 -10 -68
l-40 -32 -3 33 c-3 30 -6 32 -45 35 l-43 3 0 55 0 54 -40 0 c-25 0 -40 -5 -40
-12 0 -9 -15 -13 -42 -13 l-43 0 -3 -117 -3 -118 -44 0 -44 0 -3 48 -3 47 -82
2 -83 2 1 -27 c1 -17 3 -20 6 -9 3 11 14 17 34 17 23 0 29 -4 29 -22 0 -13 5
-30 10 -38 7 -11 10 -5 10 23 0 35 1 37 34 37 l33 0 7 -61 c3 -34 6 -91 6
-126 l0 -64 -87 3 -88 3 -5 105 -5 105 -42 3 -43 3 0 55 0 54 -40 0 -40 0 0
-105 0 -105 -50 0 -50 0 0 290 0 290 635 0 635 0 0 -400z m-206 -14 c39 -16
48 -28 40 -50 -4 -10 -22 -16 -57 -18 l-52 -3 -1 -140 c0 -77 -1 -146 -2 -152
-3 -18 -20 -16 -77 10 -115 54 -147 193 -68 288 24 28 28 30 34 13 6 -16 8
-15 14 9 8 30 31 47 64 47 16 0 21 -8 24 -37 l4 -38 1 43 c2 48 16 53 76 28z
m-844 -501 l0 -275 -210 0 -210 0 0 275 0 275 210 0 210 0 0 -275z m420 195
l145 -1 44 -39 44 -40 -312 0 -311 0 0 39 c0 48 6 50 145 46 55 -2 165 -4 245
-5z"/>
<path d="M334 1466 c-3 -8 -4 -29 -2 -48 l3 -33 175 0 175 0 3 39 c2 24 -2 42
-10 47 -7 5 -86 9 -176 9 -131 0 -164 -3 -168 -14z"/>
<path d="M215 799 c-66 -19 -109 -101 -91 -172 14 -59 96 -104 158 -86 52 15
64 25 49 43 -9 11 -25 13 -62 9 -43 -5 -53 -3 -74 17 -52 49 -16 140 55 140
33 0 80 -38 80 -65 0 -10 10 -15 30 -15 36 0 39 20 10 67 -33 56 -95 80 -155
62z"/>
</g>
</svg>
