<?xml version="1.0" standalone="no"?>
<!DOCTYPE svg PUBLIC "-//W3C//DTD SVG 20010904//EN"
 "http://www.w3.org/TR/2001/REC-SVG-20010904/DTD/svg10.dtd">
<svg version="1.0" xmlns="http://www.w3.org/2000/svg"
 width="204.000000pt" height="172.000000pt" viewBox="0 0 204.000000 172.000000"
 preserveAspectRatio="xMidYMid meet">

<g transform="translate(0.000000,172.000000) scale(0.100000,-0.100000)"
fill="#000000" stroke="none">
<path d="M1410 1585 c0 -12 7 -15 25 -13 14 2 26 8 26 13 0 6 -12 11 -26 13
-18 2 -25 -1 -25 -13z"/>
<path d="M312 1538 c-8 -8 -12 -64 -12 -185 l0 -173 -130 0 -130 0 0 -110 c0
-89 3 -110 14 -110 8 0 17 8 19 18 4 14 5 14 6 1 1 -23 58 -23 64 -1 4 15 5
15 6 1 1 -12 11 -17 36 -17 19 0 33 4 30 8 -3 5 -1 11 5 15 5 3 10 0 10 -8 0
-21 58 -20 63 1 3 9 5 -67 6 -170 l1 -188 633 0 633 0 11 30 11 30 -608 0
-609 0 -3 148 c-2 81 0 151 5 156 4 6 7 3 7 -5 0 -23 57 -23 63 -1 4 15 5 15
6 0 0 -10 8 -18 16 -18 12 0 15 19 15 110 l0 110 -55 0 -55 0 0 150 0 150 55
0 55 0 0 35 0 35 -78 0 c-47 0 -83 -5 -90 -12z"/>
<path d="M1510 1515 l0 -35 60 0 60 0 0 -150 0 -150 -60 0 -60 0 0 -109 0
-110 30 1 c20 1 30 6 30 17 1 14 3 14 14 -2 8 -10 20 -16 27 -15 11 2 15 -16
19 -72 l5 -75 21 60 c13 35 27 59 34 57 8 -2 11 4 7 17 -3 14 -1 18 9 14 9 -3
14 1 14 12 0 9 5 13 10 10 6 -4 8 -10 5 -15 -3 -4 11 -8 29 -8 24 0 36 5 39
17 4 15 5 15 6 -1 1 -22 58 -22 64 1 4 13 5 13 6 -1 0 -10 8 -18 16 -18 12 0
15 19 15 110 l0 110 -105 0 -105 0 0 173 c0 121 -4 177 -12 185 -7 7 -44 12
-95 12 l-83 0 0 -35z m147 -547 c-3 -8 -6 -5 -6 6 -1 11 2 17 5 13 3 -3 4 -12
1 -19z"/>
<path d="M1320 1470 c0 -29 1 -30 50 -30 49 0 50 1 50 30 0 29 -1 30 -50 30
-49 0 -50 -1 -50 -30z"/>
<path d="M917 1164 c-20 -20 3 -24 116 -22 75 2 121 7 120 13 -3 12 -225 20
-236 9z"/>
<path d="M1894 685 c-25 -18 -15 -25 14 -9 13 6 20 14 14 18 -5 3 -18 -1 -28
-9z"/>
<path d="M1822 607 c-18 -19 -19 -25 -7 -40 12 -17 14 -17 40 5 26 23 26 24 8
41 -19 16 -21 16 -41 -6z"/>
<path d="M1704 575 c-4 -18 1 -32 25 -57 l30 -32 26 24 26 25 -21 17 c-12 10
-27 15 -33 11 -6 -3 -7 -1 -3 5 3 6 -2 16 -13 21 -27 15 -30 14 -37 -14z"/>
<path d="M1670 484 c-7 -17 -6 -32 1 -46 11 -20 11 -20 37 5 25 26 25 27 7 47
-24 26 -33 25 -45 -6z"/>
<path d="M25 360 c-3 -5 1 -10 9 -10 9 0 16 5 16 10 0 6 -4 10 -9 10 -6 0 -13
-4 -16 -10z"/>
<path d="M1795 350 c-3 -5 -15 -10 -26 -10 -10 0 -19 -4 -19 -10 0 -5 14 -10
30 -10 23 0 30 4 30 20 0 22 -5 26 -15 10z"/>
</g>
</svg>
