<?xml version="1.0" standalone="no"?>
<!DOCTYPE svg PUBLIC "-//W3C//DTD SVG 20010904//EN"
 "http://www.w3.org/TR/2001/REC-SVG-20010904/DTD/svg10.dtd">
<svg version="1.0" xmlns="http://www.w3.org/2000/svg"
 width="179.000000pt" height="183.000000pt" viewBox="0 0 179.000000 183.000000"
 preserveAspectRatio="xMidYMid meet">

<g transform="translate(0.000000,183.000000) scale(0.100000,-0.100000)"
fill="#000000" stroke="none">
<path d="M1337 1824 c-4 -4 -7 -56 -7 -116 l0 -108 -573 0 c-432 0 -576 -3
-585 -12 -9 -9 -12 -91 -12 -309 l0 -298 -47 -3 -48 -3 -3 -269 c-2 -193 1
-273 9 -283 9 -11 42 -13 153 -11 l141 3 3 128 3 127 594 0 595 0 0 250 0 249
113 3 112 3 0 325 0 325 -221 3 c-121 1 -223 -1 -227 -4z m423 -319 l0 -265
-205 0 -205 0 0 258 c0 142 3 262 7 265 3 4 96 7 205 7 l198 0 0 -265z m-430
-155 l0 -180 80 0 80 0 0 -220 0 -220 -560 0 -559 0 -3 123 -3 122 -67 3 -68
3 0 274 0 275 550 0 550 0 0 -180z m-980 -655 l0 -205 -135 0 -135 0 0 205 0
205 135 0 135 0 0 -205z"/>
<path d="M788 1453 c12 -2 30 -2 40 0 9 3 -1 5 -23 4 -22 0 -30 -2 -17 -4z"/>
<path d="M590 1266 c0 -8 -6 -17 -12 -19 -8 -3 -6 -6 5 -6 11 -1 17 6 17 19 0
11 -2 20 -5 20 -3 0 -5 -6 -5 -14z"/>
<path d="M808 1163 c7 -3 16 -2 19 1 4 3 -2 6 -13 5 -11 0 -14 -3 -6 -6z"/>
<path d="M868 1163 c7 -3 16 -2 19 1 4 3 -2 6 -13 5 -11 0 -14 -3 -6 -6z"/>
<path d="M613 983 c9 -2 25 -2 35 0 9 3 1 5 -18 5 -19 0 -27 -2 -17 -5z"/>
<path d="M773 983 c37 -2 97 -2 135 0 37 2 6 3 -68 3 -74 0 -105 -1 -67 -3z"/>
<path d="M750 916 c0 -2 8 -10 18 -17 15 -13 16 -12 3 4 -13 16 -21 21 -21 13z"/>
<path d="M919 903 c-13 -16 -12 -17 4 -4 9 7 17 15 17 17 0 8 -8 3 -21 -13z"/>
<path d="M833 873 c9 -2 23 -2 30 0 6 3 -1 5 -18 5 -16 0 -22 -2 -12 -5z"/>
<path d="M828 803 c12 -2 30 -2 40 0 9 3 -1 5 -23 4 -22 0 -30 -2 -17 -4z"/>
</g>
</svg>
