<?xml version="1.0" standalone="no"?>
<!DOCTYPE svg PUBLIC "-//W3C//DTD SVG 20010904//EN"
 "http://www.w3.org/TR/2001/REC-SVG-20010904/DTD/svg10.dtd">
<svg version="1.0" xmlns="http://www.w3.org/2000/svg"
 width="172.000000pt" height="172.000000pt" viewBox="0 0 172.000000 172.000000"
 preserveAspectRatio="xMidYMid meet">

<g transform="translate(0.000000,172.000000) scale(0.100000,-0.100000)"
fill="#000000" stroke="none">
<path d="M172 1538 c-11 -14 -21 -238 -10 -238 3 0 12 -17 19 -37 9 -28 9 -38
0 -41 -15 -5 -16 -912 -1 -912 6 0 10 58 10 155 l0 155 534 0 c294 0 543 3
553 6 15 5 16 4 3 -5 -12 -9 -13 -12 -1 -20 11 -7 11 -10 0 -15 -12 -5 -12 -7
0 -12 11 -5 11 -8 0 -15 -12 -8 -11 -11 1 -19 10 -6 11 -10 3 -10 -18 0 -18
-100 0 -100 8 0 7 -4 -3 -10 -12 -8 -13 -11 -1 -19 11 -7 11 -9 0 -14 -12 -4
-11 -7 1 -16 10 -7 11 -11 3 -11 -7 0 -13 -4 -13 -10 0 -6 30 -10 70 -10 l70
0 0 140 0 140 75 0 75 0 0 453 c0 339 -3 456 -12 465 -7 7 -43 12 -90 12 l-78
0 0 -35 0 -35 -55 0 c-30 0 -55 -4 -55 -10 0 -5 6 -10 13 -10 8 0 7 -4 -3 -10
-12 -8 -13 -11 -1 -19 11 -7 11 -9 0 -14 -12 -4 -11 -7 1 -16 8 -6 10 -11 4
-11 -16 0 -16 -130 0 -130 6 0 4 -5 -4 -10 -12 -8 -13 -11 -1 -19 11 -7 11 -9
0 -14 -12 -5 -12 -7 0 -15 11 -8 11 -10 0 -15 -12 -4 -11 -7 1 -16 10 -7 11
-11 2 -11 -16 0 -14 -100 2 -100 6 0 4 -5 -4 -10 -12 -8 -13 -11 -1 -19 11 -7
11 -9 0 -14 -12 -5 -12 -7 0 -15 11 -8 11 -10 0 -15 -12 -4 -11 -7 1 -16 10
-7 11 -11 2 -11 -16 0 -14 -100 2 -100 6 0 4 -5 -4 -10 -12 -8 -13 -11 -1 -19
11 -7 11 -9 0 -14 -12 -5 -12 -7 0 -15 11 -8 11 -10 0 -15 -12 -4 -11 -7 1
-16 11 -8 11 -11 2 -11 -7 0 -12 -6 -11 -12 1 -7 1 -25 0 -40 l-1 -28 -185 0
c-158 0 -185 2 -185 15 0 8 -4 15 -10 15 -5 0 -10 -7 -10 -15 0 -13 -43 -15
-325 -15 l-325 0 0 400 0 400 85 0 85 0 0 35 0 35 -109 0 c-75 0 -112 -4 -119
-12z m1318 -458 l0 -400 -40 0 -40 0 0 400 0 400 40 0 40 0 0 -400z m-132 347
c4 -21 -27 -35 -38 -17 -12 19 0 42 19 38 9 -2 17 -11 19 -21z"/>
<path d="M630 1505 l0 -25 260 0 260 0 0 25 0 25 -260 0 -260 0 0 -25z"/>
<path d="M880 1295 c0 -8 5 -15 10 -15 6 0 10 7 10 15 0 8 -4 15 -10 15 -5 0
-10 -7 -10 -15z"/>
<path d="M880 1225 c0 -8 5 -15 10 -15 6 0 10 7 10 15 0 8 -4 15 -10 15 -5 0
-10 -7 -10 -15z"/>
<path d="M886 1171 c-4 -7 -5 -15 -2 -18 9 -9 19 4 14 18 -4 11 -6 11 -12 0z"/>
<path d="M880 1095 c0 -8 5 -15 10 -15 6 0 10 7 10 15 0 8 -4 15 -10 15 -5 0
-10 -7 -10 -15z"/>
<path d="M880 1031 c0 -12 5 -21 10 -21 6 0 10 6 10 14 0 8 -4 18 -10 21 -5 3
-10 -3 -10 -14z"/>
<path d="M804 962 c11 -12 19 -13 27 -5 7 7 3 12 -16 15 -25 5 -25 4 -11 -10z"/>
<path d="M876 971 c-7 -10 18 -34 27 -25 7 8 -3 34 -13 34 -5 0 -11 -4 -14 -9z"/>
<path d="M545 960 c-3 -5 1 -10 9 -10 9 0 16 5 16 10 0 6 -4 10 -9 10 -6 0
-13 -4 -16 -10z"/>
<path d="M610 960 c0 -5 4 -10 9 -10 6 0 13 5 16 10 3 6 -1 10 -9 10 -9 0 -16
-4 -16 -10z"/>
<path d="M680 960 c0 -5 5 -10 10 -10 6 0 10 5 10 10 0 6 -4 10 -10 10 -5 0
-10 -4 -10 -10z"/>
<path d="M940 960 c0 -5 7 -10 15 -10 8 0 15 5 15 10 0 6 -7 10 -15 10 -8 0
-15 -4 -15 -10z"/>
<path d="M1010 960 c0 -5 7 -10 15 -10 8 0 15 5 15 10 0 6 -7 10 -15 10 -8 0
-15 -4 -15 -10z"/>
<path d="M1080 960 c0 -5 7 -7 15 -4 8 4 15 8 15 10 0 2 -7 4 -15 4 -8 0 -15
-4 -15 -10z"/>
<path d="M1218 963 c7 -3 16 -2 19 1 4 3 -2 6 -13 5 -11 0 -14 -3 -6 -6z"/>
<path d="M891 894 c0 -11 3 -14 6 -6 3 7 2 16 -1 19 -3 4 -6 -2 -5 -13z"/>
<path d="M880 825 c0 -8 5 -15 10 -15 6 0 10 7 10 15 0 8 -4 15 -10 15 -5 0
-10 -7 -10 -15z"/>
<path d="M884 769 c-3 -6 -1 -16 5 -22 8 -8 11 -5 11 11 0 24 -5 28 -16 11z"/>
<path d="M125 250 c-8 -13 13 -50 28 -50 19 0 37 21 37 42 0 13 -8 18 -29 18
-17 0 -33 -4 -36 -10z"/>
</g>
</svg>
