<?xml version="1.0" standalone="no"?>
<!DOCTYPE svg PUBLIC "-//W3C//DTD SVG 20010904//EN"
 "http://www.w3.org/TR/2001/REC-SVG-20010904/DTD/svg10.dtd">
<svg version="1.0" xmlns="http://www.w3.org/2000/svg"
 width="177.000000pt" height="172.000000pt" viewBox="0 0 177.000000 172.000000"
 preserveAspectRatio="xMidYMid meet">

<g transform="translate(0.000000,172.000000) scale(0.100000,-0.100000)"
fill="#000000" stroke="none">
<path d="M262 1578 c-8 -8 -12 -50 -12 -125 0 -94 3 -113 15 -113 13 0 15 21
15 125 0 69 -1 125 -3 125 -2 0 -8 -5 -15 -12z"/>
<path d="M940 1555 l0 -35 320 0 320 0 0 -400 0 -400 -140 0 c-77 0 -140 3
-140 6 0 8 22 48 30 54 3 3 15 28 26 55 13 36 19 74 19 135 0 74 -4 93 -32
152 -59 126 -170 213 -302 238 -101 19 -101 19 -101 -50 0 -57 -1 -60 -25 -60
-24 0 -25 -3 -25 -57 l0 -57 -58 57 c-51 51 -62 57 -99 57 -34 0 -46 -6 -69
-32 -36 -44 -71 -122 -85 -191 -14 -66 -2 -148 32 -227 l22 -51 41 38 41 38
-39 -42 c-21 -22 -35 -46 -32 -52 5 -8 -25 -11 -98 -11 -101 0 -105 1 -108 23
-3 19 -10 22 -60 25 l-58 3 0 154 0 155 -35 0 -35 0 0 -155 0 -155 -53 0 c-29
0 -58 -5 -65 -12 -17 -17 -17 -529 0 -546 17 -17 279 -17 296 0 9 9 12 74 12
230 l0 218 605 0 605 0 0 453 c0 339 -3 456 -12 465 -9 9 -102 12 -355 12
l-343 0 0 -35z m159 -482 c0 -81 -10 -117 -39 -148 -24 -25 -16 -63 14 -70 11
-3 39 -9 61 -14 l40 -9 -35 -1 c-33 -1 -36 -5 -55 -54 l-20 -52 -86 -3 -86 -3
-26 40 c-15 23 -27 45 -27 50 0 5 -7 17 -16 25 -14 15 -13 16 10 16 28 0 56
24 56 47 0 8 -9 26 -20 40 -14 17 -20 41 -20 72 0 74 8 91 41 91 36 0 126 34
159 60 23 17 26 18 37 4 7 -9 12 -49 12 -91z m108 -249 c-3 -3 -12 -4 -19 -1
-8 3 -5 6 6 6 11 1 17 -2 13 -5z m-787 -339 l0 -205 -140 0 -140 0 0 205 0
205 140 0 140 0 0 -205z"/>
</g>
</svg>
