<?xml version="1.0" standalone="no"?>
<!DOCTYPE svg PUBLIC "-//W3C//DTD SVG 20010904//EN"
 "http://www.w3.org/TR/2001/REC-SVG-20010904/DTD/svg10.dtd">
<svg version="1.0" xmlns="http://www.w3.org/2000/svg"
 width="189.000000pt" height="174.000000pt" viewBox="0 0 189.000000 174.000000"
 preserveAspectRatio="xMidYMid meet">

<g transform="translate(0.000000,174.000000) scale(0.100000,-0.100000)"
fill="#000000" stroke="none">
<path d="M1464 1706 c-10 -26 4 -48 28 -44 17 2 23 10 23 28 0 18 -6 26 -23
28 -13 2 -25 -3 -28 -12z"/>
<path d="M262 1538 c-9 -9 -12 -126 -12 -465 l0 -453 585 0 c554 0 585 -1 585
-18 0 -10 -9 -24 -19 -31 -29 -21 -15 -44 24 -37 44 9 70 -19 55 -58 -8 -21
-7 -28 5 -33 9 -3 24 2 34 11 30 27 59 20 75 -19 17 -39 46 -39 46 0 0 36 61
50 78 18 16 -27 43 -9 36 24 -8 40 23 68 59 54 34 -13 45 14 18 43 -28 30 -18
65 20 73 38 7 41 43 4 43 -39 0 -53 45 -24 76 28 29 16 48 -25 40 -27 -5 -35
-2 -45 18 -7 13 -10 33 -7 44 9 28 -9 37 -36 18 -12 -9 -33 -16 -45 -16 l-23
0 0 328 c0 242 -3 331 -12 340 -17 17 -1359 17 -1376 0z m1338 -322 c0 -214
-3 -270 -15 -300 -19 -45 -39 -54 -65 -31 -11 10 -26 15 -35 12 -12 -5 -13
-11 -3 -32 16 -36 -11 -65 -61 -62 -31 2 -36 -1 -33 -18 2 -11 11 -28 19 -37
21 -24 10 -45 -33 -63 -31 -13 -111 -15 -545 -15 l-509 0 0 405 0 405 640 0
640 0 0 -264z m63 -457 c13 -6 31 -23 40 -39 59 -99 -64 -199 -152 -124 -26
22 -31 33 -31 71 0 79 71 125 143 92z"/>
<path d="M394 1396 c-15 -38 -1 -51 62 -56 34 -3 68 -11 77 -19 15 -11 17 -11
17 2 0 8 9 17 21 20 16 4 20 12 17 34 l-3 28 -93 3 c-74 2 -93 0 -98 -12z
m166 -21 c0 -12 -14 -15 -69 -15 -65 0 -90 8 -74 24 3 3 37 6 75 6 54 0 68 -3
68 -15z"/>
<path d="M1055 1340 c3 -5 15 -10 25 -10 10 0 22 5 25 10 4 6 -7 10 -25 10
-18 0 -29 -4 -25 -10z"/>
<path d="M1150 1340 c0 -5 9 -10 19 -10 11 0 23 5 26 10 4 6 -5 10 -19 10 -14
0 -26 -4 -26 -10z"/>
<path d="M1050 1190 c0 -5 18 -10 40 -10 22 0 40 5 40 10 0 6 -18 10 -40 10
-22 0 -40 -4 -40 -10z"/>
<path d="M1170 1190 c0 -6 28 -10 65 -10 37 0 65 4 65 10 0 6 -28 10 -65 10
-37 0 -65 -4 -65 -10z"/>
<path d="M1143 1078 c-2 -5 22 -8 53 -8 32 0 54 3 50 7 -9 10 -97 10 -103 1z"/>
<path d="M1340 1080 c-44 -7 -43 -7 20 -8 45 -1 60 1 50 8 -8 5 -17 9 -20 8
-3 0 -25 -4 -50 -8z"/>
<path d="M1450 1076 c0 -10 28 -13 41 -5 10 6 7 9 -13 9 -16 0 -28 -2 -28 -4z"/>
<path d="M1135 930 l-60 -7 73 -1 c47 -1 71 2 67 8 -3 6 -9 9 -13 8 -4 -1 -34
-4 -67 -8z"/>
<path d="M1607 714 c-4 -4 -7 -15 -7 -25 0 -10 -8 -19 -17 -21 -16 -3 -15 -6
5 -26 36 -36 57 -25 57 28 0 32 -4 46 -15 48 -9 1 -19 0 -23 -4z"/>
<path d="M32 920 c-43 -40 -15 -120 42 -120 63 0 94 83 47 122 -30 24 -62 23
-89 -2z"/>
</g>
</svg>
