<?xml version="1.0" standalone="no"?>
<!DOCTYPE svg PUBLIC "-//W3C//DTD SVG 20010904//EN"
 "http://www.w3.org/TR/2001/REC-SVG-20010904/DTD/svg10.dtd">
<svg version="1.0" xmlns="http://www.w3.org/2000/svg"
 width="172.000000pt" height="197.000000pt" viewBox="0 0 172.000000 197.000000"
 preserveAspectRatio="xMidYMid meet">

<g transform="translate(0.000000,197.000000) scale(0.100000,-0.100000)"
fill="#000000" stroke="none">
<path d="M622 1650 c-6 -11 -12 -22 -12 -25 0 -3 137 -5 305 -5 l305 0 0 25 0
25 -293 0 c-281 0 -293 -1 -305 -20z"/>
<path d="M172 1578 c-9 -9 -12 -126 -12 -465 l0 -453 610 0 610 0 0 30 0 30
-575 0 -575 0 0 400 0 400 63 0 63 0 -1 -62 0 -63 105 0 105 0 2 53 c0 30 -4
55 -10 59 -7 4 -50 7 -97 8 l-85 0 -3 38 -3 37 -93 0 c-58 0 -96 -4 -104 -12z"/>
<path d="M1310 1555 l0 -35 90 0 90 0 0 -400 c0 -349 -2 -400 -15 -400 -13 0
-15 38 -15 285 0 263 -6 325 -25 265 -4 -12 -5 -237 -4 -500 3 -385 6 -480 16
-480 10 0 13 40 13 185 l0 185 50 0 50 0 0 453 c0 339 -3 456 -12 465 -8 8
-50 12 -125 12 l-113 0 0 -35z"/>
<path d="M555 1570 c-4 -7 108 -10 329 -10 217 0 336 4 336 10 0 6 -116 10
-329 10 -209 0 -332 -4 -336 -10z"/>
<path d="M1410 1395 c0 -8 5 -15 10 -15 6 0 10 7 10 15 0 8 -4 15 -10 15 -5 0
-10 -7 -10 -15z"/>
<path d="M780 1315 l0 -65 95 0 95 0 0 65 0 65 -95 0 -95 0 0 -65z m160 20 c0
-12 -14 -15 -65 -15 -51 0 -65 3 -65 15 0 12 14 15 65 15 51 0 65 -3 65 -15z
m0 -40 c0 -12 -14 -15 -65 -15 -51 0 -65 3 -65 15 0 12 14 15 65 15 51 0 65
-3 65 -15z"/>
<path d="M572 1093 l3 -48 98 -3 97 -3 0 51 0 50 -101 0 -100 0 3 -47z m158
-3 c0 -6 -27 -10 -60 -10 -33 0 -60 4 -60 10 0 6 27 10 60 10 33 0 60 -4 60
-10z"/>
<path d="M973 1093 l2 -48 98 -3 97 -3 0 51 0 50 -100 0 -99 0 2 -47z m157 -3
c0 -6 -27 -10 -60 -10 -33 0 -60 4 -60 10 0 6 27 10 60 10 33 0 60 -4 60 -10z"/>
</g>
</svg>
