<?xml version="1.0" standalone="no"?>
<!DOCTYPE svg PUBLIC "-//W3C//DTD SVG 20010904//EN"
 "http://www.w3.org/TR/2001/REC-SVG-20010904/DTD/svg10.dtd">
<svg version="1.0" xmlns="http://www.w3.org/2000/svg"
 width="176.000000pt" height="172.000000pt" viewBox="0 0 176.000000 172.000000"
 preserveAspectRatio="xMidYMid meet">

<g transform="translate(0.000000,172.000000) scale(0.100000,-0.100000)"
fill="#000000" stroke="none">
<path d="M222 1568 c-9 -9 -12 -126 -12 -465 l0 -453 700 0 700 0 0 453 c0
339 -3 456 -12 465 -8 8 -50 12 -125 12 l-113 0 0 -35 0 -35 90 0 90 0 0 -400
0 -400 -630 0 -630 0 0 400 0 400 95 0 95 0 0 35 0 35 -118 0 c-78 0 -122 -4
-130 -12z"/>
</g>
</svg>
