<?xml version="1.0" standalone="no"?>
<!DOCTYPE svg PUBLIC "-//W3C//DTD SVG 20010904//EN"
 "http://www.w3.org/TR/2001/REC-SVG-20010904/DTD/svg10.dtd">
<svg version="1.0" xmlns="http://www.w3.org/2000/svg"
 width="172.000000pt" height="174.000000pt" viewBox="0 0 172.000000 174.000000"
 preserveAspectRatio="xMidYMid meet">

<g transform="translate(0.000000,174.000000) scale(0.100000,-0.100000)"
fill="#000000" stroke="none">
<path d="M172 1548 c-9 -9 -12 -68 -12 -205 l0 -193 35 0 35 0 0 170 0 170 95
0 95 0 0 35 0 35 -118 0 c-78 0 -122 -4 -130 -12z"/>
<path d="M1340 1525 l0 -35 75 0 75 0 0 -170 0 -170 35 0 35 0 0 193 c0 137
-3 196 -12 205 -8 8 -47 12 -110 12 l-98 0 0 -35z"/>
<path d="M610 1418 c-23 -62 -51 -134 -61 -160 l-19 -48 39 0 c31 0 40 5 49
25 11 23 17 25 80 25 64 0 70 -2 80 -25 9 -20 19 -25 47 -25 19 0 35 3 35 8
-1 4 -27 75 -59 157 l-58 150 -45 3 -45 3 -43 -113z m114 -25 c24 -69 22 -73
-29 -73 -25 0 -45 4 -45 9 0 21 43 120 50 116 5 -3 15 -26 24 -52z"/>
<path d="M1620 1111 c0 -39 1 -41 31 -41 29 0 30 2 27 38 -3 32 -7 37 -30 40
-27 3 -28 1 -28 -37z"/>
<path d="M70 1111 c0 -5 7 -11 15 -15 9 -3 15 0 15 9 0 8 -7 15 -15 15 -8 0
-15 -4 -15 -9z"/>
<path d="M160 850 l0 -220 700 0 700 0 0 220 0 220 -35 0 -35 0 0 -190 0 -190
-630 0 -630 0 0 190 0 190 -35 0 -35 0 0 -220z"/>
</g>
</svg>
