<?xml version="1.0" standalone="no"?>
<!DOCTYPE svg PUBLIC "-//W3C//DTD SVG 20010904//EN"
 "http://www.w3.org/TR/2001/REC-SVG-20010904/DTD/svg10.dtd">
<svg version="1.0" xmlns="http://www.w3.org/2000/svg"
 width="178.000000pt" height="172.000000pt" viewBox="0 0 178.000000 172.000000"
 preserveAspectRatio="xMidYMid meet">

<g transform="translate(0.000000,172.000000) scale(0.100000,-0.100000)"
fill="#000000" stroke="none">
<path d="M202 1548 c-8 -8 -12 -64 -12 -185 l0 -173 35 0 34 0 4 78 3 77 2
-77 2 -78 125 0 125 0 0 -41 c0 -29 3 -38 13 -33 9 6 9 4 0 -7 -14 -14 -18
-49 -6 -49 4 0 33 25 64 56 38 38 55 62 52 73 -4 9 4 3 17 -12 l23 -29 -49
-49 -48 -49 49 -50 49 -50 -23 -23 c-13 -12 -21 -17 -18 -11 3 6 -23 39 -58
74 -59 59 -65 62 -65 39 0 -14 6 -31 13 -38 10 -11 10 -13 0 -7 -10 6 -13 -19
-13 -108 l0 -116 -125 0 -125 0 0 -30 0 -30 400 0 400 0 0 135 0 135 43 0 c37
0 48 6 82 40 l39 40 -59 62 c-33 35 -56 59 -51 55 5 -4 15 -2 23 5 12 9 27 -1
81 -55 l66 -67 -38 -39 -38 -39 146 -1 146 -2 3 188 2 188 3 -187 2 -188 35 0
35 0 0 283 c0 207 -3 286 -12 295 -17 17 -1359 17 -1376 0z m1106 -130 c3 -17
-26 -18 -497 -18 -322 0 -502 4 -506 10 -3 6 -3 15 0 20 4 7 177 9 503 8 464
-3 497 -4 500 -20z m64 -3 c0 -5 -5 -11 -11 -13 -6 -2 -11 4 -11 13 0 9 5 15
11 13 6 -2 11 -8 11 -13z m98 5 c0 -5 -4 -10 -10 -10 -5 0 -10 5 -10 10 0 6 5
10 10 10 6 0 10 -4 10 -10z m-650 -350 c0 -5 -12 -11 -27 -11 l-28 -2 28 -4
c15 -2 27 -11 27 -19 0 -11 -15 -14 -63 -14 l-64 0 0 30 0 30 64 0 c35 0 63
-4 63 -10z m178 -20 c1 -27 -2 -30 -32 -30 -30 0 -33 3 -33 30 0 27 3 30 32
30 29 0 32 -3 33 -30z m118 14 c-3 -8 -2 -12 4 -9 6 3 10 3 10 -2 -1 -23 -20
-32 -67 -31 -50 0 -52 1 -51 28 1 27 3 28 55 29 45 0 54 -2 49 -15z"/>
<path d="M1040 1050 c0 -5 7 -7 15 -4 8 4 15 8 15 10 0 2 -7 4 -15 4 -8 0 -15
-4 -15 -10z"/>
<path d="M190 695 l0 -65 440 0 440 0 0 30 0 30 -405 0 -405 0 0 35 c0 33 -2
35 -35 35 l-35 0 0 -65z"/>
</g>
</svg>
